# xmcd
#
# Track frame offsets:
# 150
# 22141
# 50367
# 67365
# 84175
# 96313
# 122034
# 139239
# 159932
# 185221
#
# Disc length: 2709 seconds
#
#
# Revision: 0
# Processed by: cddbd v1.5.2PL0 Copyright (c) Steve Scherf et al.
# Submitted via: FreeRIP 2.941 
#
DISCID=8f0a930a
DTITLE=Texas Gun Live - You Raise Me Up
DYEAR=1900
DGENRE=
TTITLE0=Just To See You Smile
TTITLE1=Fields Of Athenry
TTITLE2=Past The Point Of Rescue
TTITLE3=Speak To The Sky
TTITLE4=Somedays You Gotta Dance
TTITLE5=Always On My Mind/ To all The Girls I've Loved Before
TTITLE6=Unchained Melody
TTITLE7=Here Comes My Baby
TTITLE8=Its 5 O'clock Somewhere
TTITLE9=You Raise Me Up
EXTD=
EXTT0=
EXTT1=
EXTT2=
EXTT3=
EXTT4=
EXTT5=
EXTT6=
EXTT7=
EXTT8=
EXTT9=
PLAYORDER=
